PathFileType	4	(X/Y/Z)	C:\Users\WrightLab\Desktop\Jo\P1_boxCal15.trc
DataRate	CameraRate	NumFrames	NumMarkers	Units	OrigDataRate	OrigDataStartFrame	OrigNumFrames
100.00	100.00	       35	19	mm	100.00	444	       507
Frame#	Time	Headset_Front			Headset_Back			Headset_Left			Headset_Right			Left_Shoulder			Right_Shoulder			Sternum			C7			Left Elbow			Right Elbow			Left Wrist			Right Wrist			Left ASIS			Right ASIS			S2			Left Knee			Right Knee			Left Ankle			Right Ankle			
		X1	Y1	Z1	X2	Y2	Z2	X3	Y3	Z3	X4	Y4	Z4	X5	Y5	Z5	X6	Y6	Z6	X7	Y7	Z7	X8	Y8	Z8	X9	Y9	Z9	X10	Y10	Z10	X11	Y11	Z11	X12	Y12	Z12	X13	Y13	Z13	X14	Y14	Z14	X15	Y15	Z15	X16	Y16	Z16	X17	Y17	Z17	X18	Y18	Z18	X19	Y19	Z19	

444	4.430										-343.34955	923.39880	2133.27783	-312.36761	1014.04156	2377.47876	-564.54828	132.57550	2438.75098													-501.75266	147.51421	2443.93262	-576.41913	1300.61243	1983.74280				-570.88251	478.99014	2003.81213	-386.23056	230.61295	1858.23621	-672.43652	809.93713	1848.85754				-677.78802	936.91144	2134.59521	-307.87247	857.31738	2494.43408	
445	4.440							-564.61572	132.45222	2438.62866	-344.54901	926.42487	2142.84937	-321.48154	1016.90997	2391.09302																-501.99893	147.46712	2444.28735	-575.44568	1302.33032	1987.66895				-575.67340	480.41956	2009.28662	-385.08041	235.97914	1868.92529	-668.20660	813.27264	1845.17883				-678.83160	937.17224	2136.58203	-321.54147	861.82135	2511.78125	
446	4.450										-346.63162	929.32996	2152.75415	-330.68045	1019.90759	2405.73779	-564.68567	132.36302	2438.48096													-502.68491	148.28998	2445.57007	-574.33472	1303.78857	1991.92017				-579.94220	481.02786	2017.93396	-383.46225	240.14847	1881.70398	-664.09894	816.20117	1843.58130				-679.94061	938.00397	2139.10205	-335.23676	865.80255	2528.21143	
447	4.460							-564.73639	132.27910	2438.38428	-347.81705	932.52783	2162.86768	-340.21954	1022.91901	2420.41943																-502.74182	148.16440	2445.47241	-572.79956	1304.89844	1994.91028				-583.90686	482.43561	2024.88599	-381.25583	244.77657	1892.25854	-660.20197	818.34338	1844.15967				-680.94653	938.07214	2139.92407				
448	4.470							-564.80133	132.18623	2438.25244	-349.22684	935.42511	2172.11084																			-503.01062	148.35684	2445.87573	-571.38470	1306.35010	1998.65222				-587.60291	482.36032	2034.19922	-380.10083	246.00916	1906.56873	-655.90503	821.76221	1840.39294				-682.02234	938.25073	2140.59448				
449	4.480							-564.87384	132.09161	2438.10034	-350.59473	937.72198	2180.42285																			-502.97235	147.80370	2445.76196	-569.95740	1307.28845	2001.29846				-591.12946	485.15295	2039.29419	-379.84528	249.78369	1920.89490	-651.68518	822.12219	1843.82727				-682.61896	938.19916	2140.50659				
450	4.490							-564.97626	131.94778	2437.89111	-352.99658	940.32587	2189.32642																			-503.15939	147.36598	2445.45435	-568.43219	1307.60681	2005.42639				-594.28583	486.91089	2044.58276	-379.82965	250.92842	1934.06250	-647.35779	824.90363	1843.47217				-682.90106	938.30896	2140.64404				
451	4.500							-565.12476	131.96947	2437.24048	-354.09222	942.36786	2198.27246																			-503.58768	147.22069	2445.65674	-566.50128	1308.37830	2012.37976				-597.03204	488.90417	2048.88599	-380.36655	249.92067	1949.65076	-642.96448	826.78088	1842.59558										
452	4.510							-565.20905	131.85434	2437.06641	-356.09006	945.39093	2205.83691	-683.50537	937.91345	2140.36548																-504.53003	148.02286	2446.77490	-564.75397	1309.02563	2017.61523				-600.05273	489.45181	2060.66382	-381.57013	247.40959	1965.02478	-638.20813	827.69751	1843.34973										
453	4.520							-565.35706	131.62738	2436.77441	-358.01462	948.05518	2213.32275	-683.54028	938.04236	2139.92773																-504.87372	147.37442	2446.12573	-563.29047	1309.43945	2020.68030				-602.72406	492.60519	2064.73853	-383.81866	244.99252	1982.14246	-633.91681	830.62683	1843.51709										
454	4.530							-565.44800	131.49275	2436.59229	-359.55466	949.72150	2220.43457	-683.47229	938.04401	2138.97559																-505.88834	147.16032	2446.39478							-604.90094	494.90015	2068.85620	-385.60611	242.09937	1996.11328	-629.01678	832.14197	1844.68335										
455	4.540							-565.57733	131.27356	2436.34863	-361.29871	951.89410	2226.90210	-683.35382	938.19849	2138.42798	-524.12903	1060.28491	1869.00720													-506.73544	147.09271	2446.52246	-335.20261	167.05054	2002.38916				-606.56177	496.75366	2071.85571	-388.40247	238.20766	2011.41992	-624.10492	833.33063	1846.65137										
456	4.550							-565.70123	131.05832	2436.11792	-362.96011	954.26721	2233.19116	-682.86755	938.56549	2137.56909	-520.78351	1062.12646	1866.08606													-507.24353	146.68030	2446.91821							-607.71857	497.55246	2079.78442	-390.84262	233.12776	2026.49927	-619.49231	834.98938	1850.04480										
457	4.560							-565.78467	130.90460	2435.96753	-364.34738	955.08044	2238.46045	-682.61365	938.96552	2136.14648	-517.43463	1063.44043	1863.95923													-507.59454	146.67255	2447.13574							-608.09637	498.98792	2081.87231	-394.44116	227.23026	2044.72144	-614.29907	835.64575	1852.32715										
458	4.570							-565.93176	130.63814	2435.69971	-366.66983	956.67426	2244.87744																			-508.27460	147.69237	2447.62158							-608.11932	501.58871	2087.22534	-398.15677	220.71094	2062.10693	-609.09534	836.06427	1854.59119										
459	4.580							-566.38855	131.49580	2435.83960	-368.81168	957.64014	2248.97021	-512.71051	892.69110	2636.78735																-508.40994	147.91972	2447.33301							-606.82867	502.41382	2090.13623	-402.14682	215.77930	2074.14063	-604.01251	836.58508	1856.98877										
460	4.590							-566.41907	130.84811	2436.05078	-370.59308	958.80603	2254.01758				-681.45660	940.20544	2133.81055													-508.64523	148.25961	2447.71167							-604.85272	502.42056	2095.35303				-599.01312	837.56042	1861.98682										
461	4.600							-566.54340	130.57892	2435.84863	-372.48718	959.33386	2260.61255	-681.50220	940.62836	2134.14648													-387.45407	217.82834	2075.21191	-509.12766	149.12079	2448.45020							-602.01080	503.63110	2101.44580				-593.87695	837.95294	1866.63757										
462	4.610							-566.62158	130.40858	2435.72192	-374.40601	959.57593	2263.90015				-681.19653	941.05316	2133.90649													-509.41211	149.30753	2448.76880	-416.01584	193.48589	2123.25220				-598.41681	506.38373	2098.68872				-588.56818	836.98645	1872.00342							-365.75854	168.09064	2216.77051	
463	4.620							-566.67633	130.24777	2435.65625	-376.57651	960.01910	2267.80957				-681.04144	941.49249	2132.92944													-509.53632	149.46860	2448.54907	-420.66556	187.00645	2134.55005				-594.16431	506.22736	2102.48804				-583.57495	837.52026	1875.58997										
464	4.630							-567.16290	130.98376	2436.41162	-378.30597	960.68866	2274.63062				-680.78015	942.11420	2130.86743													-510.21219	150.22597	2449.37891							-589.18542	506.35052	2105.39722				-578.49823	837.74084	1877.97949										
465	4.640							-567.37225	130.97412	2437.19507	-380.35123	960.79669	2278.07617				-680.27380	942.69904	2129.56982													-510.74390	150.56566	2449.78638							-583.67004	508.07510	2106.99292				-573.49493	837.32330	1883.03638										
466	4.650							-567.97552	131.90509	2438.29199				-433.15906	170.63513	2166.84912	-680.16370	943.17834	2126.99536													-511.28018	150.35526	2450.13794							-578.04779	508.35287	2112.43262				-568.23743	835.46503	1890.95825										
467	4.660							-568.05243	131.72368	2438.17554	-383.58383	961.85046	2288.77173	-438.56467	165.24681	2177.02905													-684.07837	911.68384	2261.40454	-512.41516	150.73563	2450.48706							-572.71735	509.38242	2113.71167				-563.24359	835.37030	1893.44177										
468	4.670							-568.11597	131.55762	2438.08813	-386.14780	962.05579	2291.78418	-443.49146	159.52127	2184.40894													-684.46063	912.05353	2258.02808	-513.61200	151.01833	2451.08032							-567.41510	506.97479	2119.45483				-558.22363	835.09528	1895.89233										
469	4.680							-568.19672	131.32440	2438.57666				-448.36795	155.43182	2191.77441	-474.11298	958.68695	2417.78638													-514.58032	151.30458	2451.25317							-562.96997	507.01404	2123.23169				-553.17859	832.86139	1904.08643										
470	4.690							-568.23486	131.15654	2438.56128	-393.31592	960.07104	2295.97656	-452.03641	152.97240	2196.38501													-472.58749	959.11804	2415.67456	-515.87653	151.98869	2452.60815							-558.37726	506.46762	2121.64478				-548.15271	832.01300	1909.13770										
471	4.700							-568.20038	130.55937	2438.92798	-396.36688	960.45654	2299.28711	-455.73892	150.13130	2202.04028	-466.38528	1053.69348	1996.09741													-516.89984	152.29611	2453.49487							-554.91504	505.19418	2126.43066				-543.13141	831.63269	1911.58569										
472	4.710							-568.22681	130.47929	2438.89746				-459.92355	151.02022	2206.12476													-463.05161	1053.46326	2000.16589	-517.95728	153.54301	2454.58984							-552.04535	504.99762	2127.40845				-538.11212	828.04852	1919.91016										
473	4.720							-568.17242	130.50859	2439.03418	-459.28400	1053.42114	2002.39880	-465.25214	148.62663	2212.73340																-518.60883	154.00282	2455.66431							-549.46698	504.46097	2128.75098				-533.15558	827.56891	1923.88208										
474	4.730							-568.21027	130.40408	2438.98511				-464.29202	148.73299	2211.48486	-455.67401	1053.31934	2005.71399													-518.81689	154.21106	2456.13062	-738.66217	952.60095	2311.64795				-547.22510	503.30017	2130.29834				-527.92615	825.13574	1926.30615										
475	4.740							-568.24255	130.32140	2438.93970				-459.43631	148.83620	2206.11182	-452.53900	1053.90601	2007.83899													-518.89355	154.08350	2455.97949							-545.68164	502.28482	2131.98193				-522.91254	824.58588	1928.76208										
476	4.750							-568.67499	130.80882	2439.79077	-742.68317	950.71271	2302.53027	-457.18918	148.88799	2203.85376	-448.59277	1053.65247	2011.90137													-519.59985	155.01913	2456.63818	-684.88000	843.19067	2546.14551				-544.44397	502.13162	2128.90820				-518.08746	824.00159	1931.44067										
477	4.760							-568.74902	130.70050	2439.64258				-455.22424	149.20364	2202.21143	-444.99765	1053.54895	2015.58142													-520.67914	155.95799	2457.69702							-542.36804	500.12610	2128.18408				-513.17761	823.49316	1934.01392							-744.61499	949.69092	2297.11255	
478	4.770							-568.76123	130.71486	2439.60034				-453.76569	148.16472	2201.85083	-441.24387	1053.79797	2017.27380													-521.58325	156.07393	2458.26685							-540.24939	500.21909	2125.54907				-508.19962	820.58026	1943.43738							-746.87964	950.07404	2293.43872	
